# xmcd
#
# Track frame offsets:
#	150
#	14276
#	30802
#	42375
#	53415
#	74458
#	85652
#	106089
#	120017
#	131907
#	147872
#
# Disc length: 2723 seconds
#
# Revision: 1
# Processed by: cddbd v1.5.2PL0 Copyright (c) Steve Scherf et al.
# Submitted via: audiograbber 1.83.01
#
DISCID=7f0aa10b
DTITLE=Bob Wayne - Blood To Dust
DYEAR=1900
DGENRE=
TTITLE0=Road Bound
TTITLE1=Ghost Town
TTITLE2=27 Years
TTITLE3=Here Comes The Bride
TTITLE4=La Diabla
TTITLE5=My Only Friend
TTITLE6=Blood To Dust
TTITLE7=5 In The Morning
TTITLE8=Darkness
TTITLE9=Work Of The Devil
TTITLE10=Cardboard Blues
EXTD=
EXTT0=
EXTT1=
EXTT2=
EXTT3=
EXTT4=
EXTT5=
EXTT6=
EXTT7=
EXTT8=
EXTT9=
EXTT10=
PLAYORDER=
